<?xml version="1.0" standalone="no"?>
<!DOCTYPE svg PUBLIC "-//W3C//DTD SVG 20010904//EN"
 "http://www.w3.org/TR/2001/REC-SVG-20010904/DTD/svg10.dtd">
<svg version="1.0" xmlns="http://www.w3.org/2000/svg"
 width="1024.000000pt" height="1024.000000pt" viewBox="0 0 1024.000000 1024.000000"
 preserveAspectRatio="xMidYMid meet">

<g transform="translate(0.000000,1024.000000) scale(0.100000,-0.100000)"
fill="#000000" stroke="none">
<path d="M0 5120 l0 -5120 5120 0 5120 0 0 5120 0 5120 -5120 0 -5120 0 0
-5120z m4798 3243 l42 -5 0 -204 0 -204 -80 0 -80 0 0 141 0 142 -702 -6
c-387 -4 -713 -6 -725 -7 l-23 0 0 -1143 c0 -1007 2 -1155 16 -1238 48 -277
178 -518 409 -758 245 -254 537 -460 985 -698 l185 -98 3 -73 c2 -41 -1 -72
-7 -72 -5 0 -103 47 -218 104 -444 223 -819 487 -1078 758 -221 231 -346 458
-423 768 l-26 105 -3 1248 -4 1247 843 -1 c464 -1 862 -4 886 -6z m2369 -1275
l-3 -1283 -27 -98 c-71 -254 -157 -417 -335 -628 -309 -368 -979 -808 -1552
-1019 l-109 -40 -63 23 -63 22 -3 79 c-3 72 -1 78 15 71 10 -4 43 -16 73 -27
l55 -21 143 62 c362 155 749 381 1008 588 398 319 587 578 682 936 l27 102 3
1188 3 1187 -661 0 -660 0 0 -140 0 -140 -85 0 -85 0 0 210 0 210 820 0 821 0
-4 -1282z m-1847 1119 l0 -154 -152 -6 c-84 -3 -153 -5 -154 -4 -1 1 -4 73 -6
160 l-4 157 158 0 158 0 0 -153z m-490 -1648 c0 -1071 -2 -1201 -15 -1195 -9
3 -42 24 -75 46 l-60 41 0 1074 0 1075 -395 0 -395 0 -1 -352 c-1 -194 -1
-359 0 -365 1 -10 -21 -13 -84 -13 l-85 0 0 445 0 445 555 0 555 0 0 -1201z
m480 -34 c0 -1168 -1 -1236 -17 -1242 -10 -4 -54 -28 -98 -55 l-79 -47 -31 20
c-16 11 -40 25 -52 31 -23 11 -23 12 -25 297 -2 157 -2 724 0 1259 l2 972 150
0 150 0 0 -1235z m1220 795 l0 -440 -86 0 -86 0 4 360 3 360 -282 0 -283 0 0
-1005 0 -1005 -99 -73 c-55 -39 -115 -81 -133 -92 l-33 -21 -3 1178 -2 1178
500 0 500 0 0 -440z m-2633 -1187 c1 -91 7 -191 14 -222 51 -248 277 -495 692
-753 167 -103 414 -245 591 -338 l139 -73 -26 -21 c-15 -12 -51 -35 -80 -51
l-54 -28 -158 83 c-156 81 -361 198 -540 308 -422 258 -640 499 -724 803 -18
64 -21 103 -21 267 l0 191 48 3 c26 2 63 2 82 0 l35 -4 2 -165z m2628 -23 c-1
-223 -9 -263 -89 -425 -117 -239 -308 -432 -654 -662 l-153 -102 -66 25 c-101
38 -133 52 -133 60 0 3 7 3 16 0 8 -3 12 -2 9 3 -3 5 43 39 103 75 384 231
629 459 733 679 53 115 69 202 69 384 l0 164 83 -3 82 -3 0 -195z m-2915
-2785 l0 -465 -75 0 -75 0 0 458 c0 252 3 462 7 465 3 4 37 7 75 7 l68 0 0
-465z m317 433 c58 -54 3 -157 -76 -144 -67 10 -102 82 -65 134 32 47 98 51
141 10z m558 18 c62 -26 74 -89 26 -137 -37 -37 -79 -38 -120 -3 -49 41 -42
112 14 142 27 15 39 15 80 -2z m-1398 -294 c73 -163 161 -360 196 -437 94
-206 96 -186 -13 -183 l-92 3 -41 103 -40 102 -231 -2 -230 -3 -41 -100 -42
-100 -93 -3 c-72 -2 -91 0 -87 10 3 7 37 83 75 168 126 281 238 533 282 638
l43 102 91 0 91 -1 132 -297z m2074 15 c20 -8 52 -31 72 -52 l36 -37 30 30
c94 93 261 107 356 30 21 -18 48 -54 61 -82 23 -49 24 -60 24 -283 l0 -233
-70 0 -70 0 0 191 c0 212 -7 253 -52 296 -25 24 -37 28 -88 28 -71 0 -105 -21
-137 -85 -22 -41 -23 -57 -23 -240 l0 -196 -72 2 -73 2 -5 219 c-4 190 -7 223
-23 247 -42 63 -161 74 -218 20 -52 -49 -54 -57 -59 -279 l-5 -210 -75 0 -75
0 -3 323 -2 322 80 0 80 0 0 -41 0 -41 38 36 c20 20 51 41 67 46 41 13 163 5
206 -13z m1159 2 c16 -6 30 -14 30 -18 0 -19 -38 -112 -46 -111 -5 0 -26 5
-48 11 -80 22 -157 -18 -187 -98 -5 -13 -9 -112 -9 -219 l0 -194 -80 0 -80 0
0 320 0 320 75 0 75 0 0 -41 0 -41 29 31 c44 47 86 62 153 56 32 -3 71 -11 88
-16z m530 -3 c19 -10 50 -32 68 -49 l32 -31 0 47 0 47 70 0 70 0 0 -320 0
-320 -75 0 -75 0 0 41 0 41 -36 -32 c-63 -55 -154 -77 -247 -59 -241 48 -340
371 -171 558 65 73 143 102 254 98 46 -2 88 -10 110 -21z m852 14 c65 -18 130
-70 160 -129 l28 -53 0 -229 0 -229 -75 0 -76 0 1 203 c1 111 -3 213 -8 227
-30 78 -151 115 -232 71 -19 -10 -45 -36 -57 -57 -21 -37 -23 -50 -23 -241 l0
-203 -80 0 -80 0 0 320 0 320 81 0 81 0 -4 -39 -3 -38 36 30 c20 17 52 37 70
43 42 15 132 17 181 4z m-3182 -325 l0 -325 -75 0 -75 0 0 325 0 325 75 0 75
0 0 -325z m-580 -5 l0 -321 -77 3 -78 3 2 190 c0 105 1 247 2 318 l1 127 75 0
75 0 0 -320z m-463 -582 c96 -217 274 -611 322 -712 28 -59 51 -110 51 -112 0
-3 -41 -3 -91 -2 l-91 3 -42 100 -43 100 -228 0 -229 0 -39 -102 -40 -103 -93
0 -93 0 60 133 c64 141 254 579 287 662 11 28 28 67 36 88 l16 37 88 0 89 0
40 -92z m1928 -91 c0 -97 1 -177 1 -177 1 0 19 16 40 35 108 99 308 79 413
-42 56 -63 81 -135 81 -233 0 -143 -53 -236 -168 -292 -59 -29 -76 -33 -147
-33 -86 0 -132 17 -188 69 -15 14 -29 26 -30 26 -1 0 -2 -19 -2 -42 l0 -43
-75 0 -75 0 -3 445 c-1 245 0 451 3 458 3 9 25 12 77 10 l73 -3 0 -178z
m-1285 11 l0 -103 92 0 93 0 0 -65 0 -65 -93 -3 -93 -3 3 -169 c3 -161 4 -171
26 -192 18 -18 34 -23 78 -23 l56 0 20 -49 c21 -56 20 -59 -47 -77 -53 -15
-139 -4 -189 24 -27 15 -48 37 -65 72 -25 47 -26 59 -29 232 l-3 183 -60 0
-60 0 3 68 3 67 58 3 57 3 0 93 c0 51 3 96 7 99 3 4 37 7 75 7 l68 0 0 -102z
m676 -103 c27 -8 69 -31 92 -51 l42 -36 0 47 0 46 73 -3 72 -3 0 -320 0 -320
-72 -3 -73 -3 -1 38 c-1 21 0 45 1 53 1 8 -18 -4 -42 -26 -87 -80 -218 -96
-332 -40 -171 84 -229 326 -118 491 82 121 220 171 358 130z m1730 -13 c107
-55 153 -132 162 -267 l5 -85 -252 0 c-275 0 -268 2 -237 -58 36 -69 100 -106
183 -106 50 0 74 6 122 31 l59 31 41 -42 c39 -40 41 -43 24 -58 -10 -9 -41
-28 -69 -42 -190 -95 -410 -33 -495 140 -32 65 -39 199 -14 274 24 73 103 154
180 186 53 22 72 24 155 21 73 -2 105 -8 136 -25z m411 -72 c19 -47 59 -148
88 -225 52 -134 54 -138 65 -110 6 17 48 119 93 228 l81 197 84 0 c46 0 82 -4
80 -9 -1 -5 -91 -212 -198 -460 l-195 -450 -83 -1 -82 0 18 38 c27 54 105 253
105 267 0 16 -120 304 -199 478 l-63 138 86 -3 85 -3 35 -85z"/>
<path d="M2779 3413 l-86 -208 170 -3 c93 -1 171 -1 173 1 4 4 -97 253 -147
365 l-24 53 -86 -208z"/>
<path d="M6654 3372 c-69 -44 -98 -110 -92 -207 7 -107 68 -171 174 -183 90
-10 172 49 200 144 25 87 -4 178 -72 231 -50 37 -161 45 -210 15z"/>
<path d="M3342 2494 c-23 -43 -163 -386 -159 -390 2 -3 81 -3 174 -2 l171 3
-79 185 c-43 102 -82 194 -87 205 -9 19 -9 19 -20 -1z"/>
<path d="M5523 2289 c-41 -12 -100 -81 -114 -133 -21 -79 14 -185 77 -235 71
-56 189 -46 251 21 68 73 71 228 5 301 -45 50 -137 70 -219 46z"/>
<path d="M4655 2286 c-43 -19 -94 -74 -105 -115 -26 -94 0 -197 61 -244 106
-80 238 -45 295 78 67 144 -25 296 -178 295 -24 -1 -56 -7 -73 -14z"/>
<path d="M6278 2290 c-40 -22 -73 -62 -83 -103 l-7 -27 176 0 c161 0 176 1
176 18 0 32 -45 95 -80 113 -46 25 -133 24 -182 -1z"/>
</g>
</svg>
